<?xml version="1.0" standalone="no"?>
<!DOCTYPE svg PUBLIC "-//W3C//DTD SVG 20010904//EN"
 "http://www.w3.org/TR/2001/REC-SVG-20010904/DTD/svg10.dtd">
<svg version="1.0" xmlns="http://www.w3.org/2000/svg"
 width="640.000000pt" height="1280.000000pt" viewBox="0 0 640.000000 1280.000000"
 preserveAspectRatio="xMidYMid meet">
<metadata>
Created by potrace 1.15, written by Peter Selinger 2001-2017
</metadata>
<g transform="translate(0.000000,1280.000000) scale(0.100000,-0.100000)"
fill="#000000" stroke="none">
<path d="M2858 12567 c-43 -5 -78 -13 -78 -18 0 -5 -14 -16 -31 -24 -24 -13
-76 -55 -66 -55 1 0 24 7 51 15 72 22 81 17 11 -7 -64 -21 -118 -57 -135 -88
-15 -27 13 -86 51 -105 37 -20 179 -51 272 -60 59 -6 67 -9 61 -23 -17 -41
-35 -122 -40 -182 -5 -52 -2 -76 16 -124 24 -62 74 -125 121 -153 27 -16 29
-22 29 -80 0 -49 3 -63 15 -63 13 0 15 -58 14 -467 l0 -468 -30 89 c-65 195
-164 363 -271 461 -101 91 -225 144 -394 170 -125 19 -154 19 -201 0 -119 -49
-125 -193 -13 -346 l53 -73 1 -185 c1 -186 1 -186 31 -246 38 -76 94 -119 191
-147 l74 -22 -53 -50 c-30 -29 -66 -76 -81 -108 -27 -56 -28 -64 -29 -210 0
-171 10 -228 58 -334 63 -137 179 -276 260 -309 120 -51 252 42 295 205 6 25
27 69 46 98 19 29 40 65 47 80 10 22 13 -40 15 -323 1 -192 0 -356 -3 -362 -3
-8 -24 -13 -55 -13 -76 0 -117 -21 -140 -72 -23 -50 -25 -86 -9 -160 15 -67
40 -104 84 -120 20 -6 34 -16 33 -20 -2 -4 -246 -517 -543 -1138 l-540 -1131
-40 6 c-22 3 -67 14 -100 23 l-60 18 -77 -50 c-43 -28 -78 -54 -78 -57 0 -3
30 -9 68 -13 143 -14 142 -13 49 -58 -143 -68 -150 -72 -169 -98 -12 -17 -23
-66 -34 -145 -19 -140 -20 -164 -10 -186 5 -12 -3 -20 -31 -33 -38 -17 -39
-18 -60 -114 -11 -53 -20 -98 -19 -98 0 -1 63 25 139 57 76 32 144 56 153 52
17 -6 14 -19 -27 -111 -16 -35 -29 -66 -29 -69 0 -2 21 -1 48 2 99 13 101 14
108 50 3 19 12 50 18 69 11 32 14 34 32 22 10 -7 42 -19 70 -25 l51 -12 37
-177 c46 -218 46 -215 21 -220 -11 -2 -26 -11 -32 -20 -10 -12 -13 -387 -13
-1797 l0 -1782 94 -27 c102 -31 127 -30 203 7 l43 21 0 1783 0 1784 52 180
c28 98 52 178 54 177 1 -2 14 -89 28 -193 64 -477 86 -660 82 -672 -3 -7 -14
-13 -24 -13 -10 0 -23 -5 -30 -12 -9 -9 -12 -297 -12 -1234 l0 -1222 88 -16
c108 -20 135 -20 200 -1 l52 16 0 444 c0 391 2 444 15 439 13 -5 15 -44 15
-260 l0 -253 38 -6 c20 -4 53 -11 72 -16 52 -13 120 -11 178 6 l52 16 0 229
c0 223 1 230 20 230 20 0 20 -9 22 -1059 2 -583 1 -1057 -2 -1055 -2 3 -9 24
-16 47 -17 61 -48 141 -56 145 -5 2 -1 13 7 24 13 19 12 23 -8 44 -12 13 -34
24 -49 24 -14 0 -28 6 -30 12 -4 10 -10 10 -32 0 -21 -9 -32 -10 -42 -1 -15
13 -34 4 -34 -16 0 -8 -6 -12 -14 -9 -17 6 -36 -24 -36 -58 0 -16 -9 -27 -29
-36 -16 -7 -41 -25 -56 -40 l-28 -27 27 -3 27 -3 -27 -27 -26 -27 28 -5 c24
-4 30 -11 32 -38 2 -18 10 -36 18 -39 18 -7 18 -21 -2 -80 -24 -70 -22 -202 5
-274 44 -117 150 -196 319 -239 l43 -11 -23 -40 c-44 -79 -49 -82 -149 -74
-84 7 -89 6 -83 -11 4 -11 11 -25 17 -31 7 -9 4 -13 -9 -13 -16 -1 -15 -3 6
-15 14 -8 19 -14 13 -15 -7 0 -13 -4 -13 -10 0 -5 8 -7 18 -4 16 5 16 5 0 -6
-10 -6 -18 -21 -18 -34 0 -22 2 -23 46 -15 25 5 66 18 92 30 37 17 65 21 132
20 47 0 86 -5 88 -10 5 -16 44 -62 48 -58 2 2 -3 18 -12 36 -23 45 -11 49 15
5 22 -37 41 -42 22 -6 -14 27 -14 45 1 36 8 -5 9 -2 4 12 -18 44 -27 87 -21
102 5 13 14 7 44 -28 l39 -45 -2 45 c-1 25 -8 55 -17 68 -15 21 -14 26 9 75
13 28 39 67 57 85 l33 33 51 -25 c60 -31 91 -33 113 -6 16 18 16 20 -5 35 -12
8 -16 15 -10 15 25 0 24 35 -1 57 l-25 21 39 7 c47 8 55 17 39 46 -9 17 -8 23
2 30 11 8 11 12 -3 23 -22 16 -23 30 -3 46 18 15 20 56 3 63 -10 4 -10 6 0 6
6 1 12 12 12 26 0 18 -5 25 -18 25 -26 0 -34 11 -21 26 14 17 5 44 -15 44 -10
0 -14 9 -13 27 2 22 -2 28 -17 26 -11 -1 -28 8 -38 20 l-18 22 -38 -43 c-34
-38 -40 -41 -52 -28 -20 25 -40 19 -40 -11 0 -37 -10 -73 -20 -73 -5 0 -13 13
-18 28 -12 36 -69 102 -87 102 -14 0 -14 -58 1 -123 l6 -30 -33 22 c-19 12
-42 25 -51 28 -17 5 -18 67 -18 1109 l0 1104 55 0 55 0 0 -783 0 -783 91 -23
c95 -24 128 -23 201 6 l38 15 2 795 3 795 51 19 c97 36 149 120 125 201 -13
43 -53 75 -126 100 l-50 17 -3 634 -2 635 -23 6 -23 5 46 338 c26 186 50 360
54 386 6 36 13 50 29 56 l22 8 -21 7 c-21 7 -22 15 -8 84 4 22 8 23 86 20 l82
-3 43 -133 43 -132 0 -1608 0 -1607 87 -23 c108 -27 128 -27 198 -1 l55 20 0
1579 c0 1765 -8 1552 69 1807 l31 101 68 7 c104 10 159 32 206 81 42 44 57 81
72 182 6 36 14 48 49 72 49 34 79 87 69 126 -15 59 -135 147 -298 218 -41 18
-84 39 -95 47 -11 8 -132 237 -269 509 -1014 2012 -944 1870 -920 1879 53 20
87 91 88 181 0 94 -46 146 -139 157 l-51 6 0 391 c1 385 1 390 19 346 9 -25
36 -75 59 -111 23 -36 51 -95 62 -131 35 -114 130 -198 223 -198 116 0 284
193 357 410 16 47 23 96 26 180 6 204 -23 303 -112 387 l-56 51 34 7 c160 35
235 107 257 246 10 65 9 295 -2 305 -3 4 19 43 50 88 69 101 81 127 88 207 7
73 -10 118 -58 153 -56 41 -281 20 -437 -42 -116 -46 -189 -100 -270 -201 -76
-95 -116 -174 -180 -362 l-59 -174 -1 503 c0 328 3 502 10 502 6 0 10 29 10
68 0 67 0 68 46 112 54 52 67 76 88 157 22 82 20 162 -4 225 -22 59 -17 67 40
68 57 1 209 38 245 60 40 24 50 58 32 102 -25 58 -72 86 -190 113 -49 12 -53
14 -17 9 25 -3 56 -7 70 -10 18 -3 16 0 -10 12 -19 9 -42 22 -50 29 -8 7 -56
17 -106 24 -107 13 -496 12 -606 -2z m625 -44 c-7 -2 -19 -2 -25 0 -7 3 -2 5
12 5 14 0 19 -2 13 -5z m-646 -19 c-3 -3 -12 -4 -19 -1 -8 3 -5 6 6 6 11 1 17
-2 13 -5z m461 -351 c37 -28 72 -91 72 -133 0 -91 -101 -164 -194 -139 -74 20
-139 117 -122 184 8 30 43 74 80 97 40 25 125 20 164 -9z m-198 -3938 c-120
-635 -211 -1114 -255 -1349 -26 -139 -49 -234 -57 -240 -8 -6 -33 -43 -57 -82
l-44 -71 -124 -8 c-69 -3 -126 -5 -128 -3 -2 2 143 424 321 938 178 514 342
990 365 1058 23 68 42 122 44 120 1 -2 -28 -165 -65 -363z m273 -238 c48 -254
132 -696 187 -981 55 -286 98 -521 96 -523 -1 -2 -100 -6 -220 -10 l-217 -6 6
104 c3 57 10 298 15 534 6 237 15 570 20 740 6 171 10 376 10 458 0 81 3 147
8 147 4 0 47 -208 95 -463z m192 -202 c103 -341 234 -777 292 -968 57 -192
102 -351 100 -354 -8 -7 -209 15 -217 24 -3 4 -59 287 -124 628 -65 341 -147
771 -183 955 -35 184 -66 346 -69 360 l-4 25 10 -25 c5 -14 93 -304 195 -645z
m-569 549 c-21 -60 -303 -874 -568 -1640 l-83 -241 -90 -22 c-114 -27 -195
-37 -195 -24 0 6 192 410 426 899 234 489 449 937 477 997 27 59 52 106 54
104 2 -3 -8 -35 -21 -73z m983 -988 c270 -538 490 -981 488 -982 -2 -2 -91 14
-198 36 -107 22 -204 40 -216 40 -15 0 -21 5 -17 13 3 8 -54 209 -126 448 -72
239 -197 652 -277 919 -80 267 -148 492 -151 500 -3 8 -3 13 0 10 3 -3 226
-446 497 -984z m-790 669 c-4 -159 -13 -461 -18 -670 -6 -209 -14 -491 -17
-627 l-7 -246 24 -4 c13 -2 -48 -2 -136 0 -88 2 -166 5 -172 7 -8 3 15 49 62
125 41 66 75 122 75 125 0 2 -25 -5 -55 -15 -30 -10 -55 -16 -55 -12 0 4 9 54
20 112 11 58 75 402 144 765 68 363 127 677 130 699 4 21 9 36 10 35 2 -2 0
-134 -5 -294z m1506 -1935 c3 -5 2 -10 -4 -10 -5 0 -13 5 -16 10 -3 6 -2 10 4
10 5 0 13 -4 16 -10z m-2470 -487 l131 -16 -47 -161 -47 -161 -63 0 -64 0 -32
149 c-49 230 -47 220 -27 212 10 -4 77 -14 149 -23z m945 11 c0 -8 -98 -543
-105 -571 -5 -20 -12 -23 -53 -23 l-48 0 -45 200 -46 199 14 88 c8 48 15 89
17 90 10 10 266 26 266 17z m196 -28 c6 -6 30 -207 53 -449 l43 -439 -21 -14
c-21 -15 -21 -17 -21 -635 l0 -619 -55 0 -55 0 0 1091 0 1090 23 -6 c12 -4 27
-12 33 -19z m384 -16 c0 -37 -10 -37 -80 0 l-55 29 68 1 67 0 0 -30z m686 13
c-3 -10 -22 -73 -42 -140 l-38 -123 -97 0 -97 0 -27 87 c-15 48 -36 111 -46
140 l-18 53 185 0 c172 0 185 -1 180 -17z m-1670 -33 c3 -14 10 -41 15 -60 15
-59 12 -93 -43 -442 l-53 -338 -27 0 c-23 0 -28 5 -33 33 -9 53 -105 798 -105
816 0 15 14 17 120 16 121 0 121 0 126 -25z m777 -35 c73 -53 77 -55 131 -52
46 3 56 1 56 -12 0 -9 -23 -176 -50 -371 -27 -195 -50 -358 -50 -362 0 -5 -20
-8 -45 -8 -38 0 -45 3 -49 23 -3 12 -21 189 -41 392 -19 204 -38 387 -41 408
-3 21 -2 37 4 37 5 0 43 -25 85 -55z m-311 -1047 c-2 -1029 -2 -1038 -22
-1038 -20 0 -20 8 -20 785 l0 785 -25 6 c-14 3 -25 9 -25 12 0 11 82 467 86
481 2 8 5 12 7 10 1 -2 1 -471 -1 -1041z m-363 532 c-18 -15 -19 -39 -21 -809
-2 -622 -6 -795 -15 -798 -10 -4 -13 133 -15 648 l-3 653 -25 6 c-30 7 -30 0
11 260 45 286 38 270 65 155 22 -98 22 -100 3 -115z m471 -4785 c-22 -27 -31
-15 -13 18 13 25 18 28 21 14 2 -10 -2 -24 -8 -32z"/>
<path d="M3598 12543 c7 -3 16 -2 19 1 4 3 -2 6 -13 5 -11 0 -14 -3 -6 -6z"/>
</g>
</svg>
